<svg width="22" height="20" viewBox="0 0 22 20" fill="none" xmlns="http://www.w3.org/2000/svg">
<path d="M20.004 4.001H18.024C17.2349 3.20737 16.2966 2.57779 15.263 2.14854C14.2294 1.71929 13.1211 1.49888 12.002 1.5C10.8827 1.49875 9.7742 1.7191 8.74046 2.14835C7.70672 2.5776 6.7682 3.20725 5.979 4.001H4C4.93113 2.75788 6.13929 1.74898 7.52853 1.05445C8.91777 0.359916 10.4498 -0.00112462 12.003 2.63157e-06C13.5558 -0.000813645 15.0875 0.360376 16.4764 1.0549C17.8652 1.74942 19.0731 2.75815 20.004 4.001ZM3.5 10.001C3.5 9.663 3.51933 9.32967 3.558 9.001H2.05C2.018 9.331 2.00167 9.66434 2.001 10.001C2.001 15.525 6.479 20.003 12.003 20.003C17.189 20.003 21.453 16.056 21.955 11.001H21V12.001H20.267C19.7789 14.0246 18.5654 15.7988 16.8565 16.9874C15.1476 18.176 13.062 18.6963 10.995 18.4497C8.92803 18.2032 7.02334 17.2069 5.64193 15.6497C4.26052 14.0925 3.49839 12.0826 3.5 10.001ZM12.002 14.503C11.3204 14.504 10.6475 14.3499 10.0343 14.0522C9.42116 13.7546 8.8838 13.3212 8.463 12.785C8.40295 12.7052 8.32755 12.6381 8.24124 12.5878C8.15492 12.5375 8.05942 12.5049 7.96035 12.4921C7.86128 12.4792 7.76063 12.4862 7.66431 12.5127C7.568 12.5393 7.47795 12.5848 7.39947 12.6466C7.32099 12.7085 7.25566 12.7853 7.2073 12.8728C7.15894 12.9602 7.12854 13.0564 7.11787 13.1557C7.10721 13.2551 7.1165 13.3555 7.1452 13.4512C7.1739 13.5469 7.22143 13.6359 7.285 13.713C7.84613 14.4274 8.5624 15.0048 9.37961 15.4016C10.1968 15.7983 11.0936 16.004 12.002 16.003C12.9091 16.0039 13.8045 15.7988 14.6208 15.4032C15.437 15.0075 16.1528 14.4316 16.714 13.719C16.7751 13.6417 16.8203 13.5532 16.8472 13.4584C16.874 13.3636 16.8819 13.2645 16.8704 13.1667C16.859 13.0688 16.8283 12.9742 16.7803 12.8882C16.7323 12.8023 16.6678 12.7266 16.5905 12.6655C16.5132 12.6044 16.4247 12.5592 16.3299 12.5324C16.2351 12.5055 16.136 12.4976 16.0382 12.5091C15.9403 12.5205 15.8457 12.5512 15.7597 12.5992C15.6738 12.6472 15.5981 12.7117 15.537 12.789C15.1155 13.3236 14.5782 13.7557 13.9655 14.0526C13.3529 14.3495 12.6808 14.5035 12 14.503M3 5.001H22V8.001H21V10.001H20V11.001H15V10.001H14V8.001H12V10.001H11V11.001H6V10.001H5V8.001H4V7.001H2V6.001H3V5.001ZM1 8.001V7.001H2V8.001H1ZM1 8.001H0V10.001H1V8.001ZM7 7.001H6V8.001H7V9.001H8V8.001H7V7.001ZM16 7.001H15V8.001H16V9.001H17V8.001H16V7.001Z" fill="white"/>
</svg>
