<svg width="22" height="22" viewBox="0 0 22 22" fill="none" xmlns="http://www.w3.org/2000/svg">
<path fill-rule="evenodd" clip-rule="evenodd" d="M18.3337 3.66667H3.66699C3.42388 3.66667 3.19072 3.76324 3.01881 3.93515C2.8469 4.10706 2.75033 4.34022 2.75033 4.58333V17.4167C2.75033 17.6598 2.8469 17.8929 3.01881 18.0648C3.19072 18.2368 3.42388 18.3333 3.66699 18.3333H18.3337C18.5768 18.3333 18.8099 18.2368 18.9818 18.0648C19.1537 17.8929 19.2503 17.6598 19.2503 17.4167V4.58333C19.2503 4.34022 19.1537 4.10706 18.9818 3.93515C18.8099 3.76324 18.5768 3.66667 18.3337 3.66667ZM3.66699 1.83333C2.93765 1.83333 2.23817 2.12306 1.72245 2.63879C1.20672 3.15451 0.916992 3.85399 0.916992 4.58333V17.4167C0.916992 18.146 1.20672 18.8455 1.72245 19.3612C2.23817 19.8769 2.93765 20.1667 3.66699 20.1667H18.3337C19.063 20.1667 19.7625 19.8769 20.2782 19.3612C20.7939 18.8455 21.0837 18.146 21.0837 17.4167V4.58333C21.0837 3.85399 20.7939 3.15451 20.2782 2.63879C19.7625 2.12306 19.063 1.83333 18.3337 1.83333H3.66699ZM5.50033 6.41667H7.33366V8.25H5.50033V6.41667ZM10.0837 6.41667C9.84054 6.41667 9.60739 6.51324 9.43548 6.68515C9.26357 6.85706 9.16699 7.09022 9.16699 7.33333C9.16699 7.57645 9.26357 7.80961 9.43548 7.98151C9.60739 8.15342 9.84054 8.25 10.0837 8.25H15.5837C15.8268 8.25 16.0599 8.15342 16.2318 7.98151C16.4037 7.80961 16.5003 7.57645 16.5003 7.33333C16.5003 7.09022 16.4037 6.85706 16.2318 6.68515C16.0599 6.51324 15.8268 6.41667 15.5837 6.41667H10.0837ZM7.33366 10.0833H5.50033V11.9167H7.33366V10.0833ZM9.16699 11C9.16699 10.7569 9.26357 10.5237 9.43548 10.3518C9.60739 10.1799 9.84054 10.0833 10.0837 10.0833H15.5837C15.8268 10.0833 16.0599 10.1799 16.2318 10.3518C16.4037 10.5237 16.5003 10.7569 16.5003 11C16.5003 11.2431 16.4037 11.4763 16.2318 11.6482C16.0599 11.8201 15.8268 11.9167 15.5837 11.9167H10.0837C9.84054 11.9167 9.60739 11.8201 9.43548 11.6482C9.26357 11.4763 9.16699 11.2431 9.16699 11ZM7.33366 13.75H5.50033V15.5833H7.33366V13.75ZM9.16699 14.6667C9.16699 14.4236 9.26357 14.1904 9.43548 14.0185C9.60739 13.8466 9.84054 13.75 10.0837 13.75H15.5837C15.8268 13.75 16.0599 13.8466 16.2318 14.0185C16.4037 14.1904 16.5003 14.4236 16.5003 14.6667C16.5003 14.9098 16.4037 15.1429 16.2318 15.3148C16.0599 15.4868 15.8268 15.5833 15.5837 15.5833H10.0837C9.84054 15.5833 9.60739 15.4868 9.43548 15.3148C9.26357 15.1429 9.16699 14.9098 9.16699 14.6667Z" fill="white"/>
</svg>
